<?xml version="1.0" standalone="no"?>
<!DOCTYPE svg PUBLIC "-//W3C//DTD SVG 20010904//EN"
 "http://www.w3.org/TR/2001/REC-SVG-20010904/DTD/svg10.dtd">
<svg version="1.0" xmlns="http://www.w3.org/2000/svg"
 width="500.000000pt" height="99.000000pt" viewBox="0 0 500.000000 99.000000"
 preserveAspectRatio="xMidYMid meet">

<g transform="translate(0.000000,99.000000) scale(0.100000,-0.100000)"
fill="#000000" stroke="none">
<path d="M540 570 l0 -230 50 0 50 0 0 88 c0 95 13 122 56 122 37 0 44 -20 44
-117 l0 -93 50 0 50 0 0 99 c0 55 -4 111 -10 125 -19 50 -120 74 -168 40 l-22
-15 0 105 0 106 -50 0 -50 0 0 -230z"/>
<path d="M2637 793 c-4 -3 -7 -107 -7 -230 l0 -223 45 0 45 0 0 88 c0 71 4 93
18 108 19 21 71 21 84 1 4 -7 8 -53 8 -103 l0 -91 45 -1 45 -1 0 107 c-1 69
-5 112 -13 122 -37 47 -113 64 -151 35 -11 -8 -23 -15 -28 -15 -4 0 -8 47 -8
105 l0 105 -38 0 c-21 0 -42 -3 -45 -7z"/>
<path d="M188 784 c-5 -4 -8 -106 -8 -227 l0 -219 119 4 c138 4 166 16 190 85
20 55 0 111 -47 134 -27 14 -30 18 -17 29 26 21 39 83 26 122 -17 51 -58 70
-165 76 -50 2 -94 1 -98 -4z m150 -90 c39 -27 26 -70 -26 -80 l-32 -6 0 44 c0
62 15 73 58 42z m36 -190 c38 -37 7 -84 -55 -84 l-39 0 0 50 0 50 39 0 c23 0
46 -7 55 -16z"/>
<path d="M2272 563 l3 -218 60 -3 c145 -8 225 26 239 103 10 49 -15 103 -54
116 -36 13 -36 14 -10 42 11 12 18 27 15 35 -3 8 0 10 7 6 24 -15 0 78 -26
105 -25 24 -34 26 -131 29 l-105 4 2 -219z m165 127 c20 -22 26 -50 11 -50 -6
0 -8 -6 -5 -13 3 -8 1 -20 -4 -28 -6 -10 -9 -10 -9 -1 0 7 -14 12 -35 12 l-35
0 0 50 c0 49 1 50 30 50 18 0 37 -8 47 -20z m-90 -142 c-3 -8 -6 -5 -6 6 -1
11 2 17 5 13 3 -3 4 -12 1 -19z m118 -38 c18 -15 20 -61 3 -78 -7 -7 -22 -12
-34 -12 -12 0 -24 -4 -26 -9 -2 -5 -13 -5 -25 0 -19 7 -23 16 -23 53 0 68 5
74 50 66 22 -4 46 -13 55 -20z"/>
<path d="M1920 671 c0 -40 -3 -50 -20 -54 -15 -4 -20 -14 -20 -37 0 -23 5 -33
20 -37 17 -5 20 -14 20 -63 0 -75 16 -117 51 -135 33 -17 58 -19 93 -6 23 9
24 12 14 45 -8 23 -18 36 -32 38 -18 3 -21 11 -24 60 -3 55 -2 57 25 60 24 3
28 8 31 41 3 35 2 37 -27 37 -30 0 -31 1 -31 50 l0 50 -50 0 -50 0 0 -49z"/>
<path d="M987 622 c-15 -2 -43 -19 -62 -38 -59 -59 -59 -152 -1 -210 44 -44
93 -53 146 -26 31 15 40 16 40 6 0 -10 13 -14 45 -14 l45 0 0 140 0 140 -45 0
c-35 0 -45 -4 -45 -16 0 -13 -3 -14 -15 -4 -18 15 -72 26 -108 22z m105 -99
c54 -49 -16 -139 -77 -99 -54 36 -35 116 27 116 17 0 40 -7 50 -17z"/>
<path d="M1405 610 c-28 -14 -35 -15 -39 -4 -3 9 -22 14 -51 14 l-45 0 0 -140
0 -140 50 0 50 0 0 90 c0 81 2 90 21 101 12 6 36 9 54 6 29 -5 34 -2 49 30 9
19 14 38 11 43 -10 16 -68 16 -100 0z"/>
<path d="M1622 619 c-111 -23 -140 -184 -46 -258 40 -32 87 -37 134 -13 31 15
40 16 40 6 0 -10 13 -14 45 -14 l45 0 0 140 0 140 -45 0 c-26 0 -45 -5 -45
-11 0 -7 -7 -8 -17 -4 -38 16 -79 21 -111 14z m108 -99 c27 -27 25 -56 -5 -85
-27 -28 -37 -30 -68 -14 -28 15 -37 28 -37 58 0 55 70 81 110 41z"/>
<path d="M3120 603 c-14 -9 -28 -22 -32 -27 -5 -6 -8 -2 -8 10 0 19 -6 22 -45
22 l-45 1 0 -134 0 -135 46 0 45 0 -2 80 c-1 60 2 85 15 105 9 14 21 23 26 20
6 -4 10 -1 10 6 0 10 3 10 12 1 21 -21 47 -13 64 19 13 26 14 33 2 40 -21 14
-62 10 -88 -8z m40 -33 c8 -5 11 -10 5 -10 -5 0 -17 5 -25 10 -8 5 -10 10 -5
10 6 0 17 -5 25 -10z m-96 -36 c3 -8 2 -12 -4 -9 -6 3 -10 10 -10 16 0 14 7
11 14 -7z"/>
<path d="M3310 604 c-37 -23 -61 -61 -67 -104 -8 -55 2 -83 42 -124 30 -32 41
-36 83 -36 35 0 56 6 73 20 l23 21 8 -21 c5 -15 16 -20 43 -20 l35 0 0 119 c0
66 3 126 6 135 5 13 -2 16 -39 16 -25 0 -47 -5 -49 -12 -3 -8 -11 -7 -29 4
-32 20 -98 21 -129 2z m148 -81 c32 -43 -4 -113 -57 -113 -36 1 -60 22 -67 58
-5 25 -1 36 21 57 21 22 32 26 58 21 18 -3 38 -14 45 -23z m52 -123 c0 -5 -2
-10 -4 -10 -3 0 -8 5 -11 10 -3 6 -1 10 4 10 6 0 11 -4 11 -10z"/>
<path d="M3747 600 c-33 -18 -41 -18 -39 1 1 3 -17 6 -39 7 l-39 2 0 -135 0
-135 40 0 40 0 2 88 c1 48 2 94 2 103 0 9 5 16 10 17 6 0 23 3 39 5 15 2 27 0
27 -4 0 -5 6 -9 13 -9 9 0 12 -26 12 -97 l0 -98 43 -3 42 -3 0 86 c0 105 9
125 54 125 43 0 46 -9 46 -121 l0 -89 45 0 45 0 0 110 c0 108 0 110 -30 140
-37 38 -83 40 -132 6 l-34 -23 -28 23 c-33 29 -69 30 -119 4z m283 6 c0 -2 -7
-7 -16 -10 -8 -3 -12 -2 -9 4 6 10 25 14 25 6z"/>
<path d="M4208 603 c-37 -23 -68 -83 -68 -130 0 -46 32 -101 70 -120 38 -19
103 -16 132 7 26 20 40 18 31 -5 -3 -10 6 -14 36 -13 l41 0 0 124 c0 68 1 127
3 132 4 12 -75 14 -83 2 -4 -7 -17 -6 -43 5 -47 19 -85 19 -119 -2z m189 -26
c0 -7 -9 -13 -19 -13 -18 0 -18 1 -2 13 10 7 18 13 19 13 1 0 2 -6 2 -13z
m-49 -47 c12 -12 23 -34 24 -50 0 -17 1 -36 2 -42 1 -7 -4 -13 -11 -13 -6 0
-15 -3 -19 -7 -4 -5 -22 -8 -41 -8 -67 0 -96 68 -48 115 29 30 64 32 93 5z"/>
<path d="M4651 602 c-18 -12 -25 -14 -29 -4 -2 7 -22 12 -48 12 l-44 0 0 -135
0 -135 45 0 45 0 0 94 c0 101 1 104 55 116 45 10 57 -13 59 -119 l1 -86 40 0
40 0 3 94 c2 54 -2 107 -8 122 -13 30 -52 55 -71 44 -8 -5 -10 -4 -5 3 11 19
-55 14 -83 -6z"/>
</g>
</svg>
